<?xml version="1.0" encoding="utf-8"?>
<!-- Generator: Adobe Illustrator 25.1.0, SVG Export Plug-In . SVG Version: 6.00 Build 0)  -->
<svg version="1.1" xmlns="http://www.w3.org/2000/svg" xmlns:xlink="http://www.w3.org/1999/xlink" x="0px" y="0px"
	 viewBox="0 0 634.4 177.5" enable-background="new 0 0 634.4 177.5" xml:space="preserve">
<g id="color">
	<text transform="matrix(1 0 0 1 199.2947 125.4209)"><tspan x="0" y="0" fill="#222222" font-family="'HelveticaNeue-Bold'" font-size="29.9261px">Innovation &amp; Technology</tspan><tspan x="353" y="0" fill="#666666" font-family="'HelveticaNeue-Bold'" font-size="29.9261px"> </tspan><tspan x="361.3" y="0" fill="#E92938" font-family="'HelveticaNeue-Bold'" font-size="29.9261px">HUB</tspan></text>
	<rect x="333" y="163.2" fill="none" width="5.8" height="0"/>
	<circle fill="none" cx="94.4" cy="89.1" r="74.5"/>
	<line fill="none" stroke="#E92938" stroke-width="5" stroke-miterlimit="10" x1="90.4" y1="78.6" x2="90.7" y2="167.6"/>
	<line fill="none" stroke="#E92938" stroke-width="5" stroke-miterlimit="10" x1="114.4" y1="164.6" x2="114.4" y2="116.6"/>
	<line fill="none" stroke="#E92938" stroke-width="5" stroke-miterlimit="10" x1="134.1" y1="97.6" x2="113.5" y2="118.2"/>
	<circle fill="none" stroke="#E92938" stroke-width="5" stroke-miterlimit="10" cx="139.9" cy="92.6" r="8.5"/>
	<line fill="none" stroke="#E92938" stroke-width="5" stroke-miterlimit="10" x1="103.4" y1="167.6" x2="103.4" y2="99.6"/>
	<line fill="none" stroke="#E92938" stroke-width="5" stroke-miterlimit="10" x1="120.2" y1="83.4" x2="102.4" y2="101.3"/>
	<line fill="none" stroke="#E92938" stroke-width="5" stroke-miterlimit="10" x1="119.4" y1="58.6" x2="119.4" y2="85.6"/>
	<circle fill="none" stroke="#E92938" stroke-width="5" stroke-miterlimit="10" cx="119.9" cy="49.6" r="8.5"/>
	<line fill="none" stroke="#E92938" stroke-width="5" stroke-miterlimit="10" x1="72.4" y1="162.6" x2="72.4" y2="123.6"/>
	<line fill="none" stroke="#E92938" stroke-width="5" stroke-miterlimit="10" x1="72.4" y1="87.6" x2="72.4" y2="107.6"/>
	<line fill="none" stroke="#E92938" stroke-width="5" stroke-miterlimit="10" x1="58.6" y1="75.6" x2="72.8" y2="89.8"/>
	<line fill="none" stroke="#E92938" stroke-width="5" stroke-miterlimit="10" x1="49.4" y1="153.6" x2="49.4" y2="104.6"/>
	<line fill="none" stroke="#E92938" stroke-width="5" stroke-miterlimit="10" x1="133.4" y1="158.6" x2="133.4" y2="132.6"/>
	<circle fill="none" stroke="#E92938" stroke-width="5" stroke-miterlimit="10" cx="132.9" cy="124.6" r="8.5"/>
	<circle fill="none" stroke="#E92938" stroke-width="5" stroke-miterlimit="10" cx="89.9" cy="71.6" r="8.5"/>
	<circle fill="none" stroke="#E92938" stroke-width="5" stroke-miterlimit="10" cx="71.9" cy="116.6" r="8.5"/>
	<circle fill="none" stroke="#E92938" stroke-width="5" stroke-miterlimit="10" cx="53.9" cy="71.6" r="8.5"/>
	<circle fill="none" stroke="#E92938" stroke-width="5" stroke-miterlimit="10" cx="49.9" cy="97.6" r="8.5"/>
	<circle fill="none" stroke="#E92938" stroke-width="5" stroke-miterlimit="10" cx="94.9" cy="89.6" r="78.5"/>
	<text transform="matrix(1 0 0 1 197.5386 86.0516)" fill="#222222" font-family="'HelveticaNeue-Light'" font-size="56.3341px">GARDEN ROUTE</text>
</g>
<g id="color_copy" display="none">
	<text transform="matrix(1 0 0 1 199.2947 125.4209)" display="inline"><tspan x="0" y="0" fill="#666666" font-family="'HelveticaNeue-Bold'" font-size="29.9261px">Innovation &amp; Technology </tspan><tspan x="361.3" y="0" fill="#E92938" font-family="'HelveticaNeue-Bold'" font-size="29.9261px">HUB</tspan></text>
	<rect x="333" y="163.2" display="inline" fill="none" width="5.8" height="0"/>
	<circle display="inline" fill="#FFFFFF" cx="94.8" cy="89.5" r="74.6"/>
	
		<line display="inline" fill="none" stroke="#E92938" stroke-width="5" stroke-miterlimit="10" x1="89.9" y1="79" x2="90.2" y2="168"/>
	
		<line display="inline" fill="none" stroke="#E92938" stroke-width="5" stroke-miterlimit="10" x1="114.2" y1="164.9" x2="114.2" y2="116.6"/>
	
		<line display="inline" fill="none" stroke="#E92938" stroke-width="5" stroke-miterlimit="10" x1="134.1" y1="97.6" x2="113.5" y2="118.2"/>
	<circle display="inline" fill="none" stroke="#E92938" stroke-width="5" stroke-miterlimit="10" cx="139.4" cy="92.3" r="8.6"/>
	
		<line display="inline" fill="none" stroke="#E92938" stroke-width="5" stroke-miterlimit="10" x1="103" y1="167.5" x2="103" y2="99.7"/>
	
		<line display="inline" fill="none" stroke="#E92938" stroke-width="5" stroke-miterlimit="10" x1="120.2" y1="83.4" x2="102.4" y2="101.3"/>
	
		<line display="inline" fill="none" stroke="#E92938" stroke-width="5" stroke-miterlimit="10" x1="119.4" y1="58.3" x2="119.4" y2="85.3"/>
	<circle display="inline" fill="none" stroke="#E92938" stroke-width="5" stroke-miterlimit="10" cx="119.4" cy="49.8" r="8.6"/>
	
		<line display="inline" fill="none" stroke="#E92938" stroke-width="5" stroke-miterlimit="10" x1="72" y1="162.7" x2="72" y2="124"/>
	
		<line display="inline" fill="none" stroke="#E92938" stroke-width="5" stroke-miterlimit="10" x1="72" y1="88" x2="72" y2="108.1"/>
	
		<line display="inline" fill="none" stroke="#E92938" stroke-width="5" stroke-miterlimit="10" x1="58.6" y1="75.6" x2="72.8" y2="89.8"/>
	
		<line display="inline" fill="none" stroke="#E92938" stroke-width="5" stroke-miterlimit="10" x1="49.6" y1="153.6" x2="49.6" y2="104.1"/>
	
		<line display="inline" fill="none" stroke="#E92938" stroke-width="5" stroke-miterlimit="10" x1="133.1" y1="159" x2="133.1" y2="132.5"/>
	<circle display="inline" fill="none" stroke="#E92938" stroke-width="5" stroke-miterlimit="10" cx="133.1" cy="124.6" r="8.6"/>
	<circle display="inline" fill="none" stroke="#E92938" stroke-width="5" stroke-miterlimit="10" cx="89.8" cy="71.9" r="8.6"/>
	<circle display="inline" fill="none" stroke="#E92938" stroke-width="5" stroke-miterlimit="10" cx="72" cy="116.6" r="8.6"/>
	<circle display="inline" fill="none" stroke="#E92938" stroke-width="5" stroke-miterlimit="10" cx="54.1" cy="71.2" r="8.6"/>
	<circle display="inline" fill="none" stroke="#E92938" stroke-width="5" stroke-miterlimit="10" cx="49.6" cy="98" r="8.6"/>
	<circle display="inline" fill="none" stroke="#E92938" stroke-width="5" stroke-miterlimit="10" cx="94.8" cy="89.5" r="78.5"/>
	
		<text transform="matrix(1 0 0 1 200.9553 85.7132)" display="inline" opacity="0.73" fill="#666666" font-family="'HelveticaNeue-Thin'" font-size="58.4271px">GARDEN ROUTE</text>
</g>
<g id="black" display="none">
	<text transform="matrix(1 0 0 1 199.2947 125.4209)" display="inline" font-family="'HelveticaNeue-Bold'" font-size="29.9261px">Innovation &amp; Technology HUB</text>
	<rect x="333" y="163.2" display="inline" fill="none" width="5.8" height="0"/>
	<circle fill="#FFFFFF" stroke="#000000" stroke-miterlimit="10" cx="94.8" cy="89.5" r="74.6"/>
	
		<line display="inline" fill="none" stroke="#000000" stroke-width="5" stroke-miterlimit="10" x1="89.9" y1="79" x2="90.2" y2="168"/>
	
		<line display="inline" fill="none" stroke="#000000" stroke-width="5" stroke-miterlimit="10" x1="114.2" y1="164.9" x2="114.2" y2="116.6"/>
	
		<line display="inline" fill="none" stroke="#000000" stroke-width="5" stroke-miterlimit="10" x1="134.1" y1="97.6" x2="113.5" y2="118.2"/>
	<circle display="inline" fill="none" stroke="#000000" stroke-width="5" stroke-miterlimit="10" cx="139.4" cy="92.3" r="8.6"/>
	
		<line display="inline" fill="none" stroke="#000000" stroke-width="5" stroke-miterlimit="10" x1="103" y1="167.5" x2="103" y2="99.7"/>
	
		<line display="inline" fill="none" stroke="#000000" stroke-width="5" stroke-miterlimit="10" x1="120.2" y1="83.4" x2="102.4" y2="101.3"/>
	
		<line display="inline" fill="none" stroke="#000000" stroke-width="5" stroke-miterlimit="10" x1="119.4" y1="58.3" x2="119.4" y2="85.3"/>
	<circle display="inline" fill="none" stroke="#000000" stroke-width="5" stroke-miterlimit="10" cx="119.4" cy="49.8" r="8.6"/>
	
		<line display="inline" fill="none" stroke="#000000" stroke-width="5" stroke-miterlimit="10" x1="72" y1="162.7" x2="72" y2="124"/>
	
		<line display="inline" fill="none" stroke="#000000" stroke-width="5" stroke-miterlimit="10" x1="72" y1="88" x2="72" y2="108.1"/>
	
		<line display="inline" fill="none" stroke="#000000" stroke-width="5" stroke-miterlimit="10" x1="58.6" y1="75.6" x2="72.8" y2="89.8"/>
	
		<line display="inline" fill="none" stroke="#000000" stroke-width="5" stroke-miterlimit="10" x1="49.6" y1="153.6" x2="49.6" y2="104.1"/>
	
		<line display="inline" fill="none" stroke="#000000" stroke-width="5" stroke-miterlimit="10" x1="133.1" y1="159" x2="133.1" y2="132.5"/>
	<circle display="inline" fill="none" stroke="#000000" stroke-width="5" stroke-miterlimit="10" cx="133.1" cy="124.6" r="8.6"/>
	<circle display="inline" fill="none" stroke="#000000" stroke-width="5" stroke-miterlimit="10" cx="89.8" cy="71.9" r="8.6"/>
	<circle display="inline" fill="none" stroke="#000000" stroke-width="5" stroke-miterlimit="10" cx="72" cy="116.6" r="8.6"/>
	<circle display="inline" fill="none" stroke="#000000" stroke-width="5" stroke-miterlimit="10" cx="54.1" cy="71.2" r="8.6"/>
	<circle display="inline" fill="none" stroke="#000000" stroke-width="5" stroke-miterlimit="10" cx="49.6" cy="98" r="8.6"/>
	<circle display="inline" fill="none" stroke="#000000" stroke-width="5" stroke-miterlimit="10" cx="94.8" cy="89.5" r="78.5"/>
	
		<text transform="matrix(1 0 0 1 200.9553 85.7132)" display="inline" opacity="0.73" font-family="'HelveticaNeue-Thin'" font-size="58.4271px">GARDEN ROUTE</text>
</g>
</svg>
