<?xml version="1.0" encoding="utf-8"?>
<!-- Generator: Adobe Illustrator 25.4.1, SVG Export Plug-In . SVG Version: 6.00 Build 0)  -->
<svg version="1.1" id="Layer_1" xmlns="http://www.w3.org/2000/svg" xmlns:xlink="http://www.w3.org/1999/xlink" x="0px" y="0px"
	 viewBox="0 0 611.9 162" style="enable-background:new 0 0 611.9 162;" xml:space="preserve">
<style type="text/css">
	.st0{fill:#FFFFFF;}
	.st1{fill:none;stroke:#E92938;stroke-width:5;stroke-miterlimit:10;}
	.st2{opacity:0.73;enable-background:new    ;}
	.st3{fill:#666666;}
	.st4{font-family:'HelveticaNeue-Thin';}
	.st5{font-size:102.9719px;}
	.st6{fill:#E92938;}
	.st7{font-family:'HelveticaNeue-Light';}
</style>
<circle class="st0" cx="81" cy="81" r="74.6"/>
<line class="st1" x1="76.1" y1="70.5" x2="76.4" y2="159.5"/>
<line class="st1" x1="100.4" y1="156.4" x2="100.4" y2="108.2"/>
<line class="st1" x1="120.3" y1="89.2" x2="99.8" y2="109.8"/>
<circle class="st1" cx="125.7" cy="83.9" r="8.6"/>
<line class="st1" x1="89.2" y1="159.1" x2="89.2" y2="91.3"/>
<line class="st1" x1="106.5" y1="74.9" x2="88.6" y2="92.8"/>
<line class="st1" x1="105.6" y1="49.9" x2="105.6" y2="76.9"/>
<circle class="st1" cx="105.6" cy="41.3" r="8.6"/>
<line class="st1" x1="58.2" y1="154.3" x2="58.2" y2="115.5"/>
<line class="st1" x1="58.2" y1="79.5" x2="58.2" y2="99.6"/>
<line class="st1" x1="44.8" y1="67.2" x2="59" y2="81.4"/>
<line class="st1" x1="35.8" y1="145.2" x2="35.8" y2="95.7"/>
<line class="st1" x1="119.3" y1="150.5" x2="119.3" y2="124.1"/>
<circle class="st1" cx="119.3" cy="116.2" r="8.6"/>
<circle class="st1" cx="76.1" cy="63.5" r="8.6"/>
<circle class="st1" cx="58.2" cy="108.2" r="8.6"/>
<circle class="st1" cx="40.3" cy="62.7" r="8.6"/>
<circle class="st1" cx="35.8" cy="89.6" r="8.6"/>
<circle class="st1" cx="81" cy="81.2" r="78.5"/>
<text transform="matrix(1 0 0 1 176.1113 109.0054)" class="st2"><tspan x="0" y="0" class="st3 st4 st5">GRIT</tspan><tspan x="212.1" y="0" class="st6 st7 st5">HUB</tspan></text>
</svg>
